<?xml version="1.0" encoding="UTF-8" standalone="no"?>
<!-- Created with Inkscape (http://www.inkscape.org/) -->

<svg
   viewBox="0 0 82.096672 88.234894"
   xmlns="http://www.w3.org/2000/svg"
   xmlns:svg="http://www.w3.org/2000/svg">
  <g
     id="layer1"
     transform="translate(-55.5625,-26.458338)">
    <path
       style="fill:#ffffff;stroke-width:0.264583"
       d="m 72.562387,114.29528 c -1.663454,-0.55297 -3.424172,-1.68857 -4.606115,-2.97079 -0.892476,-0.96819 -0.874494,-0.96344 1.328265,0.35122 1.96936,1.17535 5.015172,2.04453 7.164572,2.04453 0.893368,0 2.646619,-0.17828 3.896111,-0.39617 5.021548,-0.87569 7.496538,-2.39137 11.666278,-7.14446 l 0.696333,-0.79375 -0.450802,0.98887 c -0.247944,0.54388 -0.359897,1.07966 -0.248785,1.19062 0.548775,0.54808 12.843726,0.0625 15.682696,-0.6194 0.41062,-0.0986 0.67487,-0.10078 0.58722,-0.005 -0.0877,0.096 -1.45688,0.47304 -3.04271,0.83786 -3.28761,0.75632 -10.031807,1.14062 -12.595429,0.71772 -1.504349,-0.24816 -1.513258,-0.24568 -2.38125,0.66174 -1.177388,1.23087 -3.624056,2.87701 -5.597448,3.76602 -3.540786,1.59511 -9.420229,2.26123 -12.098936,1.37077 z m 1.876177,-3.22342 c -0.654844,-0.11269 -1.997266,-0.52925 -2.983161,-0.9257 -7.643213,-3.07347 -11.23974,-9.62453 -9.581521,-17.452704 0.483166,-2.280944 1.86176,-5.19756 3.163056,-6.691905 1.093939,-1.256229 2.640632,-2.390908 4.601757,-3.375925 2.077551,-1.043495 2.207889,-0.751729 0.169661,0.379794 -3.591018,1.993553 -5.430038,4.092141 -6.817784,7.78008 -0.769586,2.045176 -0.814322,2.369876 -0.808638,5.869115 0.0051,3.148615 0.09108,3.922415 0.573189,5.159375 1.153541,2.95967 3.966826,5.75192 7.561089,7.50456 2.111011,1.02938 3.413436,1.40739 5.974435,1.734 1.434495,0.18295 1.522279,0.21974 0.529167,0.22177 -0.654844,10e-4 -1.726406,-0.0898 -2.38125,-0.20246 z m 0.440972,-0.96759 c -0.09701,-0.097 -0.174565,-0.36491 -0.172337,-0.59532 0.0035,-0.36491 0.0362,-0.36807 0.253394,-0.0245 0.217929,0.3447 0.350752,0.33448 1.054282,-0.0811 0.595664,-0.35187 0.804402,-0.38561 0.802875,-0.1298 -0.0011,0.19013 -0.322529,0.49452 -0.714207,0.67642 -0.815393,0.37868 -0.979033,0.39931 -1.224007,0.15434 z m 7.814028,-0.14111 c -0.436936,-0.43694 -0.399111,-0.82877 0.06289,-0.65148 0.246091,0.0944 0.416716,-0.059 0.48328,-0.43472 0.1007,-0.56834 0.108839,-0.56662 0.382889,0.0808 0.418311,0.9882 -0.237048,1.69743 -0.929058,1.00542 z m 2.725208,-0.53149 c 4.058441,-3.18762 7.048021,-7.576 7.930851,-11.64163 0.242184,-1.115317 0.368395,-1.396693 0.38249,-0.852718 0.05501,2.123247 -1.777516,6.127758 -4.083476,8.923378 -1.413616,1.71379 -4.502571,4.42818 -5.019786,4.41108 -0.147627,-0.005 0.207838,-0.38293 0.789921,-0.84011 z m -6.879166,0.31982 c -0.08994,-0.14552 0.08866,-0.26458 0.396875,-0.26458 0.308218,0 0.486812,0.11906 0.396875,0.26458 -0.08994,0.14552 -0.268531,0.26458 -0.396875,0.26458 -0.128345,0 -0.306938,-0.11906 -0.396875,-0.26458 z m 1.344996,-0.17016 c -0.09176,-0.23911 -0.112414,-0.48916 -0.04591,-0.55566 0.210273,-0.21028 0.68529,0.21196 0.68529,0.60914 0,0.51899 -0.433621,0.48272 -0.639379,-0.0535 z m 1.029113,0.15861 c -0.08601,-0.13917 0.08877,-0.25303 0.3884,-0.25303 0.638855,0 0.703305,0.14713 0.156382,0.35701 -0.213622,0.082 -0.458774,0.0352 -0.544782,-0.10398 z m -17.38627,-1.95084 c -1.717028,-1.39868 -2.194221,-2.08385 -2.835633,-4.07151 -0.267419,-0.8287 -0.797538,-2.10204 -1.178042,-2.82964 -0.449961,-0.86042 -0.801399,-2.142161 -1.005247,-3.666267 l -0.313421,-2.343346 0.834267,-1.625404 c 0.458847,-0.893972 1.026819,-2.51837 1.26216,-3.609777 l 0.427893,-1.984375 -1.186945,-2.513541 c -4.463119,-9.451353 -5.19591,-20.328583 -2.032027,-30.1625 1.113538,-3.461075 3.895903,-8.929793 5.95709,-11.708618 l 1.717822,-2.31591 1.522747,1.179163 c 0.837511,0.648539 2.713372,1.673728 4.16858,2.278198 l 2.645833,1.099036 3.439584,-0.103183 3.439583,-0.103183 2.245162,-1.182022 c 2.128271,-1.120483 4.565925,-3.172573 5.647094,-4.753897 0.29146,-0.426291 0.253275,-0.247704 -0.107407,0.502315 -1.108369,2.304793 -3.963504,4.465943 -7.444082,5.634679 -2.986945,1.00298 -8.794833,0.56714 -11.657504,-0.874813 -0.615274,-0.309918 -1.631963,-0.979777 -2.259309,-1.488574 l -1.14063,-0.925086 -0.682928,0.62626 c -2.630762,2.412466 -6.600453,10.852229 -7.617891,16.196018 -0.656754,3.449405 -1.016366,10.296816 -0.667203,12.704292 0.583777,4.025138 1.363497,7.439863 2.145595,9.396473 1.051796,2.631323 2.40816,5.324268 2.681691,5.324268 0.122701,0 0.448462,-0.525766 0.723915,-1.16837 0.368269,-0.85914 0.820958,-1.355985 1.710389,-1.877224 0.665261,-0.389869 1.209567,-0.861 1.209567,-1.046954 0,-0.185957 -0.251864,-0.907481 -0.559698,-1.603391 -0.625615,-1.414306 -1.913433,-7.53863 -2.37498,-11.294406 -0.666156,-5.420762 0.678811,-12.337145 3.494562,-17.9705 0.710709,-1.421887 1.292199,-2.709876 1.292199,-2.862201 0,-0.386054 0.442709,-0.345319 1.133788,0.104325 1.085836,0.706488 4.815148,1.939496 6.867504,2.270575 3.118723,0.503105 7.084297,0.232325 9.168488,-0.626047 3.386784,-1.394844 6.54789,-4.357838 8.320252,-7.798803 1.367673,-2.655277 2.23285,-5.323497 2.500204,-7.710666 0.184298,-1.645594 0.206883,-1.684216 1.181984,-2.021304 0.546753,-0.189009 2.764419,-0.42609 4.928149,-0.526846 3.56538,-0.166026 4.16648,-0.126786 6.41424,0.418721 4.37929,1.062807 7.92465,3.032258 12.29547,6.830153 2.67874,2.327609 5.12921,5.249554 7.23732,8.629774 2.1827,3.499827 2.47731,4.109524 3.87988,8.029377 1.97461,5.518573 1.97578,5.523881 2.13578,9.718579 0.28893,7.57454 -1.35658,13.995226 -5.23032,20.40839 -3.24342,5.369639 -7.96448,9.90742 -12.86822,12.368638 -2.17321,1.090753 -1.99093,0.81476 0.45533,-0.689404 3.63648,-2.236004 8.26841,-6.980695 11.31119,-11.586543 1.73922,-2.632641 2.17221,-3.514407 3.57091,-7.271914 1.62852,-4.37492 2.08601,-7.210287 2.06555,-12.8016 -0.014,-3.824486 -0.54077,-6.220208 -2.38626,-10.852496 -1.32621,-3.328837 -1.8974,-4.465781 -3.12261,-6.215473 -4.42895,-6.324898 -10.60767,-12.245685 -14.93332,-14.30993 -4.05434,-1.934769 -6.66523,-2.270615 -12.976872,-1.669248 l -3.373438,0.321418 v 0.719805 c 0,1.28215 -0.778343,4.464228 -1.584274,6.476945 -1.689172,4.218508 -4.73895,7.631959 -8.403691,9.405795 -2.390002,1.156827 -4.234748,1.506982 -8.054232,1.528791 -1.119198,0.0064 -2.10849,0.130681 -2.198427,0.276202 -0.238712,0.386244 -0.661459,0.323305 -0.661459,-0.09848 0,-0.21345 -0.408863,-0.431898 -0.992187,-0.530108 -0.545703,-0.09188 -1.998675,-0.583343 -3.228826,-1.09215 -1.230151,-0.508804 -2.434601,-0.9251 -2.676555,-0.9251 -0.817053,0 -3.343092,6.568184 -4.37548,11.377083 -0.584999,2.724949 -0.672937,10.084676 -0.150164,12.567709 0.44605,2.118622 2.115808,7.375226 2.517035,7.923937 0.287684,0.39343 0.505712,0.315172 2.165637,-0.777317 1.015162,-0.668133 2.417293,-1.418357 3.115848,-1.667163 0.890388,-0.317132 1.234471,-0.571024 1.150927,-0.849249 -0.06555,-0.218281 -0.429373,-1.230313 -0.808506,-2.248958 -1.051531,-2.825226 -1.483536,-5.607109 -1.452883,-9.355791 0.03249,-3.973351 0.310753,-3.230753 0.729743,1.947457 0.272342,3.365815 1.141202,7.162131 2.034594,8.88976 0.388138,0.750577 0.437304,0.766 1.912203,0.599916 0.832603,-0.09376 1.544528,-0.194556 1.582057,-0.224002 0.03753,-0.02944 -0.519532,-1.173763 -1.237914,-2.542937 -1.784309,-3.400734 -2.432703,-6.069168 -2.601103,-10.704718 -0.104237,-2.869343 -0.03313,-4.220356 0.31168,-5.922079 0.43634,-2.153425 1.686907,-5.714664 1.923635,-5.477933 0.06541,0.06541 -0.181439,1.06975 -0.548552,2.231871 -0.367114,1.162119 -0.865335,3.46211 -1.10716,5.111089 -0.865422,5.901248 0.147228,11.294731 2.967842,15.807046 0.938034,1.500632 1.031667,1.571483 2.228869,1.686518 0.687336,0.06605 1.834811,0.426027 2.549948,0.799963 0.715134,0.373933 2.395082,0.979887 3.733218,1.346565 2.289387,0.627343 4.332438,1.61381 5.88255,2.840331 l 0.677495,0.536067 1.30688,-0.647248 c 2.329688,-1.153808 6.106829,-1.587415 8.364832,-0.960265 1.28991,0.358269 3.78038,2.043369 5.45235,3.68918 0.74281,0.731179 1.48867,1.329418 1.65748,1.329418 0.70321,0 4.13093,-2.049717 5.50498,-3.291893 0.81422,-0.736074 1.22756,-1.010105 0.91853,-0.60896 -0.80878,1.049856 -2.8986,2.735308 -4.584,3.697013 -1.69885,0.969377 -1.90131,1.204981 -1.56904,1.825836 0.13537,0.252934 0.24074,0.557006 0.23416,0.675714 -0.007,0.118708 -0.2852,-0.30648 -0.61916,-0.944861 -0.83423,-1.594641 -3.45695,-4.150506 -5.07095,-4.941679 -2.745533,-1.34584 -6.461198,-1.354685 -9.456369,-0.02252 l -1.532398,0.681572 0.937109,1.362316 c 0.553204,0.80422 1.303732,2.520117 1.832028,4.188492 0.492205,1.554398 1.272609,3.440001 1.734233,4.190232 1.422133,2.311263 1.385662,2.720602 -0.606237,6.804552 -0.960919,1.97015 -1.806922,3.5821 -1.880003,3.5821 -0.07308,0 0.3556,-1.33946 0.952627,-2.97657 1.437963,-3.943029 1.497902,-4.564715 0.664819,-6.895787 -0.373777,-1.045882 -0.865915,-2.64346 -1.093637,-3.550174 -0.45857,-1.825868 -1.103286,-3.08029 -2.450311,-4.767575 -0.956588,-1.198218 -1.254586,-1.31201 -1.984534,-0.757801 -0.423421,0.32148 -0.353208,0.472784 0.865836,1.865853 2.10821,2.409171 3.444705,5.512667 3.414643,7.929202 -0.01654,1.329187 -0.02553,1.313812 -0.657338,-1.122526 -0.777177,-2.996923 -1.670238,-4.710814 -3.459761,-6.639677 -1.250804,-1.3482 -1.394155,-1.431057 -1.852083,-1.07052 -0.464674,0.365847 -0.471342,0.359032 -0.1045,-0.106844 0.359939,-0.457107 0.307528,-0.570513 -0.643686,-1.392772 -1.720551,-1.487299 -6.574269,-3.53356 -8.381585,-3.53356 -0.417605,0 -0.759282,-0.119063 -0.759282,-0.264584 0,-0.341376 0.107403,-0.336372 2.465519,0.114808 2.206623,0.422198 5.594395,1.96659 7.273018,3.315568 0.913828,0.734372 1.161642,0.824376 1.498978,0.544412 0.675442,-0.560567 0.473403,-0.890138 -1.249495,-2.038197 -5.143687,-3.427518 -8.805878,-4.173937 -14.690664,-2.994218 -4.375441,0.877142 -6.00079,1.619518 -8.681292,3.965163 -1.708007,1.494639 -3.238556,4.179535 -4.048277,7.101514 -0.274143,0.989277 -0.750295,2.292361 -1.058115,2.895738 -0.649056,1.272254 -0.691435,2.045456 -0.162797,2.970212 0.207968,0.363802 0.382343,1.021038 0.387499,1.460526 0.01438,1.225447 0.993262,4.494359 1.846738,6.167049 0.421103,0.8253 1.370108,2.24469 2.108899,3.15419 0.738792,0.90951 1.295124,1.65365 1.236294,1.65365 -0.05883,0 -0.752546,-0.52589 -1.541591,-1.16864 z m 7.471536,0.51727 c 0,-0.61496 0.05941,-0.65837 0.545244,-0.39836 0.616056,0.3297 0.559509,0.87427 -0.104148,1.00298 -0.32087,0.0622 -0.441096,-0.10256 -0.441096,-0.60462 z m 12.964583,0.10659 c 0,-0.15411 0.119062,-0.20662 0.264583,-0.11668 0.145521,0.0899 0.264584,0.21603 0.264584,0.2802 0,0.0642 -0.119063,0.11668 -0.264584,0.11668 -0.145521,0 -0.264583,-0.12609 -0.264583,-0.2802 z m -10.055158,-0.37458 c -5.56e-4,-0.14919 -0.555379,-0.4993 -1.232962,-0.77801 -1.984639,-0.81633 -4.381172,-3.37935 -5.668584,-6.06239 -0.936242,-1.951184 -1.112394,-2.596918 -1.232179,-4.516925 -0.227277,-3.642974 0.813909,-6.054903 3.666317,-8.493107 3.534695,-3.021414 6.412878,-3.920453 10.645666,-3.325318 1.331931,0.187273 2.617285,0.443889 2.856341,0.57026 0.314815,0.166417 0.555115,0.06725 0.871575,-0.35967 l 0.436925,-0.589438 -0.137195,0.680524 c -0.109315,0.542237 0.08099,0.891709 0.936522,1.719791 0.590547,0.571598 1.324383,1.396455 1.630749,1.833018 0.545891,0.77788 0.546179,0.784333 0.01445,0.322839 -0.533387,-0.46292 -0.548325,-0.450445 -0.880282,0.735192 -0.185729,0.663356 -0.394181,1.14961 -0.463227,1.080561 -0.06905,-0.06904 0.07227,-0.697536 0.314037,-1.396648 l 0.439576,-1.271111 -1.168115,-1.069205 c -0.642463,-0.588065 -1.630555,-1.222385 -2.195755,-1.409605 -1.54435,-0.51155 -5.983655,-0.693615 -7.676294,-0.314819 -1.795452,0.401804 -4.870857,2.41519 -6.623363,4.336139 -1.815303,1.989781 -2.294092,3.487841 -2.162428,6.765909 0.09524,2.371246 0.192915,2.777988 1.115217,4.644143 1.137963,2.30251 3.469624,4.80317 5.308665,5.69343 4.596898,2.22532 11.1236,0.66928 14.205324,-3.38672 1.770515,-2.33027 2.47814,-4.118769 2.47814,-6.263439 0,-1.018645 -0.09174,-2.328333 -0.203877,-2.910416 -0.175123,-0.909072 -0.156864,-0.983703 0.129471,-0.529167 0.209989,0.333343 0.334391,1.508286 0.336169,3.175 0.0027,2.564694 -0.02836,2.704177 -1.013865,4.548312 -1.804921,3.37747 -4.126748,5.29129 -7.593573,6.25918 -1.719972,0.48019 -7.131961,0.71666 -7.133441,0.31169 z m -4.496925,-0.33015 c 0,-0.33292 0.756275,-0.99283 0.934058,-0.81504 0.07013,0.0701 -0.111336,0.34368 -0.403269,0.60787 -0.291934,0.2642 -0.530789,0.35742 -0.530789,0.20717 z m 15.875,-0.89651 c 0,-0.38872 0.553979,-0.54402 0.904097,-0.25344 0.19346,0.16056 0.575199,0.21137 0.848304,0.11291 0.278508,-0.1004 0.403741,-0.0774 0.285192,0.0525 -0.264015,0.28913 -2.037593,0.36579 -2.037593,0.0881 z m 1.638212,-1.31341 c 0.05214,-0.15643 0.207918,-0.28442 0.346163,-0.28442 0.138244,0 0.294018,0.12799 0.346162,0.28442 0.05215,0.15644 -0.103627,0.28443 -0.346162,0.28443 -0.242536,0 -0.398309,-0.12799 -0.346163,-0.28443 z m 12.679201,-0.34172 c 1.689006,-0.49661 3.513166,-1.44121 4.534216,-2.34794 l 0.85983,-0.76357 -1.19063,0.17287 c -4.627964,0.67193 -7.416772,0.83759 -8.312731,0.49377 -1.042979,-0.40023 -0.174649,-0.58127 2.822631,-0.58851 4.3878,-0.0106 6.73905,-0.40657 7.66333,-1.29061 1.04816,-1.002506 2.57576,-4.849231 2.8112,-7.079015 l 0.19656,-1.86147 0.20275,1.671169 c 0.2707,2.231189 -0.1685,4.213773 -1.30888,5.908371 -0.50267,0.746965 -0.86441,1.407635 -0.80388,1.468175 0.0605,0.0605 0.85078,-0.0819 1.75611,-0.31647 2.46804,-0.63953 2.19487,-0.3016 -0.32503,0.40208 -1.69911,0.47448 -2.49586,0.86942 -3.5629,1.7661 -1.63763,1.37617 -3.73446,2.38334 -5.37249,2.58056 l -1.190625,0.14335 z m -6.90908,-0.2243 c 0,-0.11434 0.171566,-0.20788 0.381259,-0.20788 0.209693,0 0.439079,0.0935 0.509741,0.20788 0.07067,0.11434 -0.100901,0.20789 -0.381259,0.20789 -0.280358,0 -0.509741,-0.0936 -0.509741,-0.20789 z m -4.101042,-0.47247 c -0.08994,-0.14552 -0.03743,-0.26458 0.116676,-0.26458 0.154109,0 0.280199,0.11906 0.280199,0.26458 0,0.14552 -0.0525,0.26459 -0.116676,0.26459 -0.06417,0 -0.190262,-0.11907 -0.280199,-0.26459 z m -24.209374,-2.41364 c 0,-0.46917 0.0653,-0.50738 0.396875,-0.23219 0.218281,0.18116 0.396875,0.43386 0.396875,0.56156 0,0.12771 -0.178594,0.23219 -0.396875,0.23219 -0.228119,0 -0.396875,-0.23878 -0.396875,-0.56156 z m 10.492101,-0.35354 c -2.656414,-0.94714 -4.395995,-4.378919 -3.640989,-7.182799 0.731611,-2.716995 3.027687,-4.52946 6.060093,-4.783687 1.581723,-0.132604 2.00836,-0.06873 3.064736,0.458851 0.674967,0.337095 1.434396,0.842499 1.687615,1.123121 0.282575,0.313151 -0.07077,0.180388 -0.914813,-0.34373 -1.706594,-1.059728 -3.219402,-1.258385 -5.199433,-0.682774 -4.746379,1.37981 -6.088141,6.95433 -2.444006,10.153918 1.523261,1.33744 3.965707,1.74214 6.042091,1.00114 1.247849,-0.44532 1.302896,-0.25468 0.07464,0.25852 -1.142828,0.4775 -3.386926,0.47629 -4.729938,-0.003 z m 0.522216,-3.042292 c 0.16428,-0.174736 0.789358,-0.383513 1.389062,-0.463949 l 1.09037,-0.146251 v -1.428674 c 0,-1.620771 0.194583,-1.792869 1.678498,-1.484558 1.20327,0.250002 1.183334,0.76912 -0.02484,0.647112 -0.819674,-0.08278 -0.859896,-0.04445 -0.859896,0.819412 0,1.325899 -0.777108,2.080877 -2.30743,2.241717 -0.977092,0.102693 -1.196565,0.0607 -0.965752,-0.184809 z m -1.969102,-0.871254 0.08291,-0.859896 1.521355,0.05157 c 1.335198,0.04526 1.521354,-0.0098 1.521354,-0.449998 0,-0.275866 0.128928,-1.102744 0.286507,-1.83751 l 0.286508,-1.33594 h 1.168701 c 1.070225,0 1.1687,-0.05573 1.1687,-0.661458 0,-0.363802 0.126249,-0.661459 0.280557,-0.661459 0.162406,0 0.245972,0.417833 0.198437,0.992188 -0.08133,0.982623 -0.09423,0.992965 -1.338889,1.07283 l -1.256771,0.08064 v 1.559856 c 0,1.838847 -0.286073,2.107539 -2.034094,1.910512 -1.030855,-0.116192 -1.1893,-0.06416 -1.319377,0.433252 -0.231291,0.884457 -0.658153,0.662244 -0.565897,-0.294592 z m 6.234472,0.574119 C 79.170641,98.06581 79.058254,97.15749 79.4413,96.552658 c 0.301377,-0.475875 1.510059,-0.189209 1.837529,0.435811 0.328165,0.626345 -0.09675,1.652428 -0.680178,1.642475 -0.25935,-0.0044 -0.679905,-0.129403 -0.934566,-0.277731 z m 1.124479,-0.772557 c 0,-0.291041 -0.04979,-0.529166 -0.110651,-0.529166 -0.06086,0 -0.298985,-0.07227 -0.529167,-0.1606 -0.293016,-0.11244 -0.418515,-0.0067 -0.418515,0.352777 0,0.601507 0.215577,0.866156 0.705556,0.866156 0.194027,0 0.352777,-0.238125 0.352777,-0.529167 z M 63.863645,97.382219 c 0.0081,-0.696929 0.02479,-0.705951 0.396875,-0.214014 0.494978,0.654421 0.492412,0.941618 -0.0084,0.941618 -0.258606,0 -0.393944,-0.253495 -0.388461,-0.727604 z M 111.42671,97.05149 c -0.24175,-0.551278 -1.01512,-5.369555 -0.88305,-5.501622 0.28906,-0.289057 0.66549,0.352968 0.94018,1.603529 0.30883,1.405953 0.26165,4.625022 -0.0571,3.898093 z m 15.65101,-2.38125 c 4.8664,-6.576216 6.64736,-9.7936 8.20165,-14.816667 1.92545,-6.222553 1.99485,-6.680784 1.96355,-12.964583 -0.0175,-3.523342 0.0533,-5.285713 0.18612,-4.630208 0.11794,0.582083 0.2213,2.921735 0.22969,5.199229 0.0258,7.01113 -1.07703,11.900926 -4.0787,18.084104 -1.86081,3.833111 -4.01564,7.018959 -6.62297,9.791848 l -1.73937,1.849818 z m -52.850823,1.534583 c -0.346662,-0.346662 -0.408079,-0.990674 -0.1569,-1.645235 0.224459,-0.584933 1.251171,-0.522068 1.824748,0.111726 0.974348,1.076642 -0.640206,2.561151 -1.667848,1.533509 z m 1.27,-0.740833 c 0,-0.355828 -0.176389,-0.529167 -0.538475,-0.529167 -0.456488,0 -0.495356,0.08057 -0.255275,0.529167 0.155761,0.291041 0.398075,0.529166 0.538476,0.529166 0.140401,0 0.255274,-0.238125 0.255274,-0.529166 z m 37.041663,0.516027 c 0,-0.152746 0.19359,-0.652068 0.43018,-1.109599 0.42015,-0.812485 0.41399,-0.844793 -0.26458,-1.385863 -0.73252,-0.584095 -0.92132,-1.200442 -0.36403,-1.188448 0.1819,0.0039 0.73233,0.340225 1.22318,0.747358 0.98253,0.814964 0.98318,1.285507 0.003,2.530999 -0.55482,0.705342 -1.02823,0.892061 -1.02823,0.405553 z M 63.334479,94.976199 c -0.0054,-0.395963 0.177432,-0.668682 0.505778,-0.754547 0.30346,-0.07936 0.558299,-0.421616 0.621815,-0.835126 0.08159,-0.531196 0.117211,-0.460684 0.147266,0.291526 0.02355,0.589365 -0.08279,0.992188 -0.261918,0.992188 -0.165858,0 -0.459728,0.208359 -0.653044,0.463021 -0.324172,0.427042 -0.352136,0.41484 -0.359897,-0.157062 z m 53.711381,-1.959605 c 0.009,-1.108255 0.0148,-1.114936 0.3875,-0.463021 0.49608,0.867818 0.49608,1.5875 0,1.5875 -0.292,0 -0.3944,-0.297164 -0.3875,-1.124479 z M 85.08862,92.156698 c 0.0029,-0.582083 0.05712,-0.789054 0.120406,-0.459936 0.06329,0.329118 0.06088,0.805368 -0.0053,1.058334 -0.06622,0.252965 -0.118004,-0.01632 -0.115067,-0.598398 z m 3.537839,0.518938 c -0.255318,-0.665345 -0.179999,-0.837023 0.131903,-0.300657 0.154434,0.265576 0.225054,0.538602 0.156932,0.606724 -0.06812,0.06812 -0.198099,-0.06961 -0.288835,-0.306067 z m 25.774751,-0.731298 c -0.34663,-0.174244 -0.67932,-0.465635 -0.73932,-0.647536 -0.15341,-0.465108 0.59577,-0.412901 0.99605,0.06941 0.25259,0.304353 0.41868,0.328266 0.69385,0.0999 0.21741,-0.180432 0.36177,-0.194661 0.36177,-0.03566 0,0.576598 -0.66758,0.838009 -1.31235,0.513892 z M 63.873138,91.2885 c -0.02071,-0.698133 0.665915,-1.068491 1.124357,-0.606468 0.241421,0.243311 0.217476,0.279078 -0.104771,0.156504 -0.272428,-0.103627 -0.51927,0.05197 -0.709697,0.447344 l -0.291982,0.606235 z m 24.208478,0.01971 c -0.143584,-0.377084 -0.113194,-0.407474 0.148113,-0.148114 0.180822,0.179478 0.262115,0.39297 0.180653,0.474433 -0.08146,0.08146 -0.229407,-0.06538 -0.328766,-0.326319 z M 117.3472,90.436906 c -0.9386,-1.635916 -0.99409,-1.852083 -0.47541,-1.852083 0.48817,0 0.82485,0.460841 1.20982,1.655953 0.5299,1.645039 0.15443,1.745311 -0.73441,0.19613 z m -8.683,0.658088 c -0.0879,-0.228978 -0.11528,-0.440957 -0.0609,-0.471062 0.0544,-0.0301 1.03344,-0.519006 2.17573,-1.086453 2.63193,-1.307438 4.68914,-2.853568 6.80177,-5.111972 3.44356,-3.681174 6.59946,-12.273608 6.59946,-17.96805 0,-0.781304 0.11906,-1.42055 0.26458,-1.42055 0.38028,0 0.32323,2.636012 -0.12025,5.55625 -0.64557,4.250962 -2.09838,7.999984 -4.46009,11.509375 -2.21226,3.287328 -6.49765,7.108277 -9.91081,8.836707 -0.99359,0.50315 -1.14895,0.521917 -1.28946,0.155755 z M 65.446782,89.85721 c 0.0022,-0.19049 0.119468,-0.524939 0.260532,-0.74322 0.208515,-0.322654 0.257238,-0.288462 0.260532,0.182822 0.0022,0.318833 -0.115011,0.653282 -0.260532,0.743219 -0.145521,0.08994 -0.26276,0.0077 -0.260532,-0.182821 z m 54.632408,-0.482174 c -0.66729,-0.250426 -1.33896,-1.011002 -1.57404,-1.7824 -0.30439,-0.998877 0.33133,-0.676323 0.91258,0.46302 0.55425,1.086433 0.884,1.289871 1.21711,0.750901 0.10765,-0.174178 -0.0703,-0.518229 -0.41057,-0.79375 -0.64679,-0.52374 -0.30333,-0.660426 0.53377,-0.212426 0.57071,0.305433 0.69662,1.451248 0.18104,1.64741 -0.1819,0.06921 -0.56885,0.03647 -0.85989,-0.07276 z M 66.633356,88.32024 c -0.08994,-0.145521 -0.03743,-0.264584 0.116677,-0.264584 0.154109,0 0.280198,0.119063 0.280198,0.264584 0,0.145521 -0.0525,0.264583 -0.116677,0.264583 -0.06417,0 -0.190261,-0.119062 -0.280198,-0.264583 z m 0.509852,-0.920361 c -0.44764,-0.338659 -0.455259,-0.386752 -0.06245,-0.394142 0.246073,-0.0046 0.525886,0.11857 0.621807,0.273772 0.288219,0.466349 -0.01562,0.531733 -0.559361,0.12037 z m 54.022622,-0.02732 c -0.28925,-0.753772 -0.15189,-1.047427 0.24469,-0.523103 0.21365,0.282475 0.38846,0.609897 0.38846,0.727605 0,0.378719 -0.46726,0.227798 -0.63315,-0.204502 z m 0.92843,-0.938152 c -0.0523,-1.184986 -0.61559,-1.372105 -1.45458,-0.4832 -0.78623,0.833016 -1.60534,1.114552 -0.86608,0.29768 0.24083,-0.266121 0.43788,-0.60873 0.43788,-0.761355 0,-0.152622 0.18431,-0.430464 0.40958,-0.617421 0.33647,-0.279246 0.57262,-0.262181 1.32292,0.09561 0.50233,0.239546 0.91333,0.325429 0.91333,0.190852 0,-0.134578 -0.11504,-0.315789 -0.25565,-0.402688 -0.32289,-0.19956 -0.14944,-2.604519 0.19615,-2.719716 0.14119,-0.04706 0.7592,0.514615 1.37336,1.248169 1.24635,1.488623 0.92841,1.805178 -0.4759,0.473837 l -0.90703,-0.859895 0.17564,1.160052 c 0.12629,0.834072 0.0693,1.280165 -0.20273,1.5875 -0.2081,0.235095 -0.43638,0.665572 -0.50729,0.956614 -0.10194,0.418436 -0.13533,0.383691 -0.1596,-0.166042 z m -54.270279,0.04937 c 0,-0.136932 0.117699,-0.321712 0.261553,-0.410617 0.149981,-0.09269 0.194338,0.01352 0.103984,0.248967 -0.175893,0.45837 -0.365537,0.542235 -0.365537,0.16165 z m 1.44406,-1.091985 c -0.09607,-0.155443 -0.347403,-0.216337 -0.558523,-0.135324 -0.214356,0.08226 -0.312475,0.03181 -0.222206,-0.114253 0.237412,-0.384143 0.811912,-0.318743 1.188752,0.135322 0.207702,0.250266 0.225438,0.396875 0.04801,0.396875 -0.154751,0 -0.359966,-0.12718 -0.456035,-0.28262 z m 12.314273,-1.30488 c 0,-0.145521 0.12609,-0.264584 0.280199,-0.264584 0.154109,0 0.206613,0.119063 0.116676,0.264584 -0.08994,0.14552 -0.216027,0.264583 -0.280199,0.264583 -0.06417,0 -0.116676,-0.119063 -0.116676,-0.264583 z m -9.260417,-0.745739 c 0,-0.319762 0.501968,-0.692571 0.685456,-0.509085 0.0666,0.0666 -0.06039,0.27169 -0.282187,0.455766 -0.251455,0.20869 -0.403269,0.228764 -0.403269,0.05332 z m 5.483477,-0.738145 c -0.327734,-0.327734 0.09752,-0.632783 0.882138,-0.632783 0.427975,0 0.778135,0.119062 0.778135,0.264583 0,0.145521 -0.168857,0.264584 -0.375235,0.264584 -0.206379,0 -0.540021,0.06323 -0.741425,0.14052 -0.201404,0.07729 -0.446029,0.06068 -0.543613,-0.0369 z m 46.688666,-1.200796 c -0.72641,-0.694637 -1.04938,-1.1835 -0.8883,-1.344575 0.33756,-0.337569 1.26672,0.17018 1.66159,0.908002 0.29541,0.551984 0.3174,0.554477 0.66752,0.07566 0.3484,-0.476467 0.36205,-0.474094 0.36205,0.06297 0,0.670602 -0.25607,1.396219 -0.49133,1.392274 -0.0936,-0.0016 -0.68376,-0.494016 -1.31153,-1.094327 z M 92.901623,80.517775 C 87.747558,79.211197 83.474124,74.721183 82.272831,69.3503 c -1.218464,-5.447649 0.49625,-11.788764 4.587402,-16.964458 1.538605,-1.946484 6.107406,-4.485558 8.878858,-4.934355 0.81969,-0.132736 0.670102,-0.03427 -0.666784,0.438917 -2.459863,0.870659 -5.7432,2.792555 -7.15831,4.190103 -2.281931,2.25361 -4.674158,7.472699 -5.294924,11.551854 -0.615087,4.041833 0.282538,7.47654 2.868083,10.974562 2.460924,3.329421 4.601417,4.579416 8.588357,5.015396 3.863028,0.422426 6.552587,0.178949 9.169007,-0.83005 4.96211,-1.913591 7.8391,-4.892506 8.88262,-9.197295 0.28654,-1.182055 0.37219,-1.33141 0.38938,-0.679035 0.0294,1.117328 -0.81357,3.764227 -1.65757,5.204399 -0.87813,1.498428 -3.31241,3.720396 -5.02865,4.590084 -3.25396,1.648905 -4.61607,2.00147 -8.108403,2.098763 -2.29168,0.06384 -3.771902,-0.02564 -4.820274,-0.29141 z m 32.335247,-0.628158 c -1.11609,-0.598566 -1.31891,-1.094377 -0.44766,-1.094377 0.41049,0 0.81965,0.254225 1.10152,0.684413 0.58839,0.897988 0.4352,0.994035 -0.65386,0.409964 z M 66.236481,79.131824 c 0,-0.137472 0.714375,-0.558183 1.5875,-0.934918 0.873125,-0.376735 1.5875,-0.812946 1.5875,-0.969359 0,-0.266687 -0.739316,-0.409038 -1.547906,-0.298043 -0.196504,0.02697 -0.278774,-0.07798 -0.182822,-0.233235 0.491268,-0.794888 2.766065,0.02944 2.438301,0.883581 -0.267985,0.698357 -3.882573,2.143212 -3.882573,1.551974 z m 60.699699,-0.890256 c -0.89982,-0.994286 -1.4126,-1.132047 -1.67536,-0.450096 -0.19951,0.517794 -0.26014,0.541951 -0.413,0.164547 -0.25492,-0.629367 0.31052,-1.542029 0.95536,-1.542029 0.6026,0 2.08122,1.429697 2.08122,2.012357 0,0.527521 -0.3686,0.455695 -0.94822,-0.184779 z m -60.3184,-2.49745 c 0.282475,-0.213654 0.818256,-0.378791 1.190625,-0.366972 0.675033,0.02143 0.674688,0.02257 -0.116716,0.38494 -1.102904,0.505013 -1.751014,0.494167 -1.073909,-0.01796 z m 61.97947,-0.50124 c 0.40829,-0.353068 0.78338,-0.527659 0.83351,-0.38798 0.14453,0.402648 -0.50371,1.029925 -1.06435,1.029925 -0.44221,0 -0.41094,-0.08698 0.23084,-0.641945 z m -9.05815,-0.284096 c 0.0895,-0.436563 0.35576,-2.282032 0.59161,-4.101042 0.36846,-2.841818 0.38224,-3.735525 0.0979,-6.35 -0.18198,-1.673489 -0.61267,-3.93057 -0.95707,-5.015735 -0.68212,-2.149261 -0.69917,-2.774577 -0.03,-1.102278 0.55407,1.38476 1.08994,3.76383 1.62984,7.235878 0.46935,3.018358 0.33313,5.024768 -0.54385,8.01026 -0.46715,1.590326 -1.04062,2.552568 -0.78842,1.322917 z M 66.924546,74.72027 c 0.168883,-0.440102 1.103419,-0.735052 1.303457,-0.411382 0.143433,0.23208 -0.680879,0.782185 -1.172074,0.782185 -0.150521,0 -0.209643,-0.166862 -0.131383,-0.370803 z M 94.01773,73.774255 c 0,-0.142166 0.327422,-0.463317 0.727605,-0.713671 0.400182,-0.250351 0.770231,-0.48424 0.822333,-0.51975 0.0521,-0.03551 -0.318487,-0.756155 -0.823524,-1.601433 -0.505037,-0.845278 -1.300467,-2.26614 -1.767623,-3.157471 l -0.849376,-1.620602 1.21163,-2.4125 c 0.666396,-1.326875 1.690481,-3.216979 2.275748,-4.200231 0.585263,-0.983253 1.162179,-1.966326 1.282036,-2.184607 0.119858,-0.218281 0.477221,-0.435388 0.794141,-0.482462 0.839261,-0.124656 3.4823,2.778913 5.46482,6.003499 l 0.71036,1.155411 -1.08762,3.989488 -1.08761,3.989488 0.69059,0.720821 c 0.37983,0.396451 0.64358,0.861859 0.58612,1.034235 -0.0598,0.17939 -0.53102,-0.122664 -1.10194,-0.706345 -1.13788,-1.163302 -1.14861,-0.864066 0.18659,-5.202314 0.52885,-1.718324 0.96155,-3.331083 0.96155,-3.583911 0,-0.441831 -3.944677,-5.618832 -4.834479,-6.34478 -0.380984,-0.310825 -0.520806,-0.190622 -1.17248,1.007951 -0.406953,0.748472 -1.24461,2.157439 -1.861465,3.131037 -0.616855,0.973595 -1.38725,2.269956 -1.711989,2.880799 l -0.590434,1.110623 1.157706,2.196669 c 0.636738,1.208167 1.492371,2.661086 1.901407,3.228713 0.409035,0.567626 0.680148,1.134875 0.602474,1.260552 -0.139911,0.22638 -2.068901,1.279276 -2.343737,1.279276 -0.07856,0 -0.142833,-0.116319 -0.142833,-0.258485 z m 32.82922,-0.160438 c 0.0127,-0.308226 0.0754,-0.370919 0.15985,-0.159853 0.0764,0.190995 0.067,0.419198 -0.0209,0.507119 -0.0879,0.08792 -0.15046,-0.06835 -0.13897,-0.347266 z M 67.416766,72.839922 c -0.541291,-0.442365 -0.652983,-0.643176 -0.361397,-0.649751 0.433253,-0.0098 1.477213,0.95758 1.263768,1.171025 -0.06543,0.06543 -0.471496,-0.169146 -0.902371,-0.521274 z m 61.525964,0.244734 c -0.3638,-0.201867 -0.90659,-0.368787 -1.2062,-0.370933 -0.29961,-0.0021 -0.77586,-0.188103 -1.05833,-0.413242 -0.483,-0.384953 -0.4601,-0.398968 0.38425,-0.235225 1.25943,0.244237 2.67403,0.867037 2.67403,1.177285 0,0.143568 -0.0298,0.249359 -0.0661,0.23509 -0.0364,-0.01426 -0.3638,-0.191106 -0.7276,-0.392975 z M 65.971897,71.396215 c 0,-0.552051 0.718261,-1.067642 1.487316,-1.067642 0.37604,0 0.319916,0.150151 -0.296691,0.79375 -0.886338,0.925137 -1.190625,0.995135 -1.190625,0.273892 z m 62.243233,-1.075886 c -0.32743,-0.131609 -0.59532,-0.291507 -0.59532,-0.355335 0,-0.196938 1.05785,0.14874 1.21037,0.395517 0.16827,0.272275 0.16114,0.271809 -0.61505,-0.04018 z M 96.371443,68.103766 c -0.974286,-2.082001 -0.942851,-2.660766 0.285755,-5.261118 0.587507,-1.243457 0.984184,-1.774491 1.325531,-1.774491 0.596053,0 3.178751,3.023481 3.178751,3.721264 0,0.604147 -1.246846,3.981415 -1.600424,4.334994 -0.364091,0.36409 -0.316744,0.01466 0.29192,-2.154489 l 0.543574,-1.937194 -1.006595,-1.449986 c -0.55363,-0.797494 -1.129758,-1.451398 -1.280282,-1.453121 -0.347051,-0.004 -1.079574,1.228874 -1.59036,2.676597 -0.375817,1.065175 -0.361283,1.207349 0.300469,2.939132 0.382463,1.000895 0.624903,1.890291 0.538755,1.97644 -0.08615,0.08615 -0.530339,-0.641967 -0.987094,-1.618028 z m -30.3334,0.166272 c -1.522088,-0.584845 -1.417348,-0.832874 0.225612,-0.534254 0.74255,0.134961 1.392671,0.202805 1.444714,0.150762 0.214684,-0.214683 -0.236014,-1.262139 -0.543072,-1.262139 -0.182811,0 -0.913065,-0.264412 -1.622787,-0.587579 -1.054394,-0.480116 -1.181362,-0.60448 -0.694209,-0.679976 0.327908,-0.05082 1.260954,0.100853 2.073436,0.337047 1.123792,0.326697 1.440105,0.526219 1.322034,0.833908 -0.08536,0.222454 -0.155207,0.811443 -0.155207,1.308865 0,1.04861 -0.289878,1.109874 -2.050521,0.433366 z m 61.449477,-0.05813 c -0.20695,-0.334857 0.14331,-0.334857 0.66146,0 0.34202,0.221033 0.33504,0.25704 -0.0505,0.260532 -0.24607,0.0022 -0.52099,-0.115011 -0.61093,-0.260532 z m 1.98438,-0.101447 c 0,-0.0558 0.29765,-0.158348 0.66146,-0.227893 0.3638,-0.06955 0.66145,-0.02389 0.66145,0.101446 0,0.125341 -0.29765,0.227894 -0.66145,0.227894 -0.36381,0 -0.66146,-0.04565 -0.66146,-0.101447 z m -2.38125,-1.073563 c 0,-0.209692 0.11906,-0.454845 0.26458,-0.544782 0.14552,-0.08994 0.26458,0.08163 0.26458,0.381259 0,0.29963 -0.11906,0.544783 -0.26458,0.544783 -0.14552,0 -0.26458,-0.171567 -0.26458,-0.38126 z m 1.05833,-1.20624 c -0.28667,-0.185259 -0.0435,-0.257607 0.87551,-0.260533 0.78178,-0.0024 1.20934,0.09797 1.10887,0.260533 -0.20794,0.336454 -1.46375,0.336454 -1.98438,0 z M 66.765647,64.110865 c 0,-0.363802 0.119063,-0.661458 0.264584,-0.661458 0.145521,0 0.264583,0.297656 0.264583,0.661458 0,0.363802 -0.119062,0.661458 -0.264583,0.661458 -0.145521,0 -0.264584,-0.297656 -0.264584,-0.661458 z m 63.139733,0.264583 c -0.0838,-0.218281 -0.45368,-0.396875 -0.82206,-0.396875 -0.78179,0 -0.89763,-0.40786 -0.16988,-0.59817 0.63944,-0.167216 0.96957,0.05156 1.20208,0.796608 0.20599,0.660051 0.0306,0.825704 -0.21014,0.198437 z m -2.55064,-1.588804 c -0.37259,-0.979974 -0.33982,-1.107308 0.33122,-1.28714 0.82884,-0.22212 0.99219,-0.206017 0.99219,0.09782 0,0.145521 -0.19248,0.264584 -0.42772,0.264584 -0.31465,0 -0.39397,0.17654 -0.30007,0.667774 0.17547,0.917935 -0.27108,1.110588 -0.59562,0.256962 z m -62.507322,0.112403 c -0.566465,-0.329935 -0.611569,-1.03714 -0.06615,-1.03714 0.233984,0 0.398537,-0.244335 0.400926,-0.595313 0.0022,-0.327422 0.119468,-0.773906 0.260532,-0.992187 0.191834,-0.296842 0.257501,-0.156909 0.260532,0.555178 0.0037,0.870476 0.09875,0.989253 1.109327,1.386218 1.507345,0.5921 1.115254,0.834353 -0.550012,0.339823 -1.335504,-0.396603 -1.645991,-0.302781 -1.031514,0.311697 0.383717,0.383718 0.240957,0.395521 -0.383646,0.03172 z m 2.056719,-3.015599 c -0.578674,-0.495141 -0.993089,-0.959303 -0.920921,-1.03147 0.197633,-0.197633 2.714848,1.240536 2.836986,1.620866 0.204122,0.635625 -0.870822,0.304964 -1.916065,-0.589396 z m 25.561243,0.324813 c 0.573596,-1.072613 3.939556,-5.959419 4.325226,-6.279499 0.207203,-0.171961 0.624515,-0.234013 0.927362,-0.137893 0.694206,0.220332 5.564942,4.913178 5.562212,5.359059 -0.005,0.735459 -0.76959,0.215169 -3.1083,-2.113812 -2.850959,-2.839109 -2.711733,-2.837685 -4.643212,-0.04749 -0.696952,1.006814 -1.625296,2.277055 -2.062988,2.822758 -0.880806,1.098166 -1.508503,1.347211 -1.0003,0.396875 z m 44.10186,-1.050086 c -1.46762,-5.477539 -1.90417,-6.765012 -3.09065,-9.114954 -1.6272,-3.222842 -2.851,-4.96842 -6.36321,-9.07625 -2.84491,-3.327368 -5.21891,-5.527516 -7.63136,-7.072506 -2.90673,-1.861539 -7.91514,-4.219916 -10.51533,-4.9515 -4.4881,-1.262762 -6.38604,-2.241374 -2.62794,-1.355016 11.23787,2.650483 21.41827,10.571817 26.68011,20.759711 2.02801,3.926604 4.34826,10.795045 4.07822,12.072424 -0.0465,0.21999 -0.28493,-0.347869 -0.52984,-1.261909 z m -9.07825,0.850027 c 0.2642,-0.291934 0.53774,-0.473406 0.60788,-0.40327 0.17778,0.177784 -0.48213,0.934058 -0.81504,0.934058 -0.15026,0 -0.057,-0.238855 0.20716,-0.530788 z m -0.85782,-0.572874 c -0.32553,-0.395218 -1.12802,-2.457151 -1.12802,-2.898354 0,-0.127225 0.16874,-0.231317 0.37499,-0.231317 0.45822,0 1.29208,2.082347 1.16924,2.919875 -0.0767,0.522894 -0.13437,0.551971 -0.41621,0.209796 z m -4.57863,-3.328109 c -2.20969,-3.930544 -5.33701,-7.595613 -8.98279,-10.527403 -2.5315,-2.035738 -6.7119,-4.277086 -8.8877,-4.765203 -5.414789,-1.214745 -5.775829,-1.313222 -5.142163,-1.402568 1.001263,-0.141177 4.369503,0.467967 6.583033,1.190535 7.91946,2.585173 14.16888,8.536634 17.25328,16.430681 0.40385,1.033592 0.0619,0.649097 -0.82366,-0.926042 z m -53.043967,0.556009 c -0.109317,-0.357275 -0.615765,-0.737206 -1.363181,-1.022649 -1.354959,-0.517461 -1.223398,-1.059923 0.160782,-0.662945 0.487793,0.139896 0.975516,0.199588 1.08383,0.132646 0.458096,-0.28312 0.836835,0.646396 0.564297,1.384919 -0.258271,0.699868 -0.280441,0.708226 -0.445728,0.168029 z m 54.997257,-0.394705 c -0.15805,-0.197858 -0.54309,-0.945957 -0.85567,-1.662441 -0.53881,-1.235072 -0.54153,-1.278464 -0.0524,-0.835843 0.28374,0.256773 0.71104,0.878121 0.94956,1.380774 0.46943,0.989245 0.44221,1.723014 -0.0414,1.11751 z m 0.85963,-1.259515 c -0.57659,-0.637125 -0.21704,-0.888611 1.10732,-0.774509 0.83696,0.07211 0.98558,0.0053 0.98558,-0.44332 0,-0.379087 -0.17878,-0.529934 -0.6332,-0.534268 -0.35632,-0.0034 -0.80428,-0.263708 -1.02446,-0.595313 -0.23048,-0.347112 -0.27569,-0.589274 -0.11002,-0.589274 0.15468,0 0.35781,0.123904 0.45141,0.275346 0.0936,0.15144 0.40399,0.201134 0.68977,0.110432 0.68344,-0.216916 1.21131,0.250436 1.43543,1.270873 0.14656,0.667274 0.0678,0.918403 -0.40918,1.304634 -0.76763,0.621594 -1.91813,0.61024 -2.49265,-0.02461 z M 68.882314,53.932942 c -1.546033,-1.390213 -1.4119,-1.71273 0.309861,-0.745048 1.065312,0.598742 1.254539,0.54615 1.63399,-0.454112 0.0552,-0.145521 0.20146,-0.169871 0.325015,-0.05411 0.123554,0.115758 0.0641,0.46754 -0.132116,0.781733 -0.255009,0.408337 -0.271018,0.599845 -0.05613,0.671475 0.165347,0.05512 0.30063,0.328414 0.30063,0.607328 0,0.860276 -0.845608,0.573608 -2.38125,-0.807263 z m 55.033336,-3.172811 c -0.88571,-0.129723 -1.07172,-0.228563 -0.72633,-0.385935 0.25537,-0.116353 0.88044,-0.16297 1.38906,-0.10359 1.05159,0.122767 1.15249,-0.08723 0.40233,-0.837385 -0.8574,-0.857403 -2.10153,-1.002384 -3.51246,-0.409323 -0.26628,0.111929 -0.46302,0.07947 -0.46302,-0.07638 0,-0.149056 0.51768,-0.468709 1.15039,-0.710345 1.10011,-0.420137 1.18799,-0.41647 2.01085,0.08394 0.81224,0.493953 1.86584,1.868779 1.86584,2.434696 0,0.276214 -0.25674,0.276738 -2.11666,0.0043 z M 106.85002,47.80097 c -0.87312,-0.28289 -2.42094,-0.612744 -3.43958,-0.733005 l -1.85208,-0.218657 1.42668,-0.03432 c 1.37887,-0.03318 4.92582,0.823203 5.43925,1.313262 0.30386,0.29002 0.37952,0.30575 -1.57427,-0.327276 z m 13.36146,-0.452774 c 0,-0.252135 1.58405,-1.625872 1.87478,-1.625872 0.1019,0 0.2538,0.178593 0.33757,0.396875 0.10087,0.262874 -0.01,0.396875 -0.32756,0.396875 -0.26392,0 -0.69536,0.238125 -0.95875,0.529166 -0.49921,0.551625 -0.92604,0.691264 -0.92604,0.302956 z M 97.143121,47.129084 c 0.190995,-0.07643 0.419198,-0.06703 0.507119,0.02088 0.08792,0.08792 -0.06835,0.150452 -0.347266,0.138964 -0.308226,-0.0127 -0.370919,-0.07539 -0.159853,-0.15985 z m 1.835547,-0.275243 c 0.472943,-0.05869 1.246852,-0.05869 1.719792,0 0.47294,0.05869 0.086,0.106714 -0.859896,0.106714 -0.945886,0 -1.332839,-0.04802 -0.859896,-0.106714 z m 18.176942,-1.569161 -0.73742,-0.96681 0.9706,-0.778645 c 0.53384,-0.428254 0.97061,-1.012248 0.97061,-1.297763 0,-0.285515 0.11906,-0.445534 0.26458,-0.355597 0.47887,0.295957 0.27719,0.95414 -0.54398,1.77531 -0.82887,0.828866 -0.83511,0.968865 -0.0889,1.995003 0.73133,1.005731 -0.05,0.658312 -0.83544,-0.371498 z m -4.5509,-2.420202 c -0.47294,-0.227237 -0.85482,-0.540386 -0.84861,-0.695886 0.0175,-0.439254 2.06053,-2.664734 2.26163,-2.463634 0.0983,0.09832 -0.19428,0.60362 -0.65021,1.122894 -0.45592,0.519274 -0.82896,1.010204 -0.82896,1.090955 0,0.08075 0.26789,0.364016 0.59532,0.629477 0.80605,0.653515 0.52384,0.822141 -0.52917,0.316194 z m 1.78594,-0.128732 c 0,-0.087 0.24988,-0.581699 0.5553,-1.09934 0.33607,-0.569599 0.43436,-0.941166 0.24897,-0.941166 -0.16849,0 -0.23275,-0.119062 -0.14281,-0.264583 0.37795,-0.611543 0.72467,-0.227452 0.58296,0.645801 -0.0813,0.500712 -0.0343,0.968032 0.10428,1.03849 0.13862,0.07046 0.10022,0.09304 -0.0853,0.05018 -0.18554,-0.04286 -0.5457,0.103588 -0.80036,0.325434 -0.25466,0.221846 -0.46302,0.332179 -0.46302,0.245182 z M 105.6594,39.14876 c 0,-0.122959 0.47365,-0.956397 1.05256,-1.852083 l 1.05256,-1.62852 -0.98641,-0.01677 c -0.9209,-0.01566 -0.9429,-0.03414 -0.33118,-0.278226 0.36038,-0.1438 0.92593,-0.193516 1.25677,-0.11048 0.62144,0.155972 0.80989,0.774641 0.32689,1.073152 -0.15106,0.09336 -0.63867,0.814758 -1.08359,1.603115 -0.72718,1.288491 -1.2876,1.815057 -1.2876,1.209814 z m 7.20989,-0.216248 c -0.54165,-0.218563 -0.37485,-0.58052 0.19844,-0.430601 0.29104,0.07611 0.52917,0.243556 0.52917,0.372105 0,0.252248 -0.20633,0.268836 -0.72761,0.0585 z m -4.82864,-0.273571 c 0,-0.29377 1.38978,-2.218358 1.51297,-2.095174 0.18196,0.181962 -0.97172,2.27939 -1.25377,2.27939 -0.14256,0 -0.2592,-0.0829 -0.2592,-0.184216 z M 98.519698,36.26347 c 0.0029,-1.07987 0.07848,-1.406185 0.260532,-1.12448 0.141066,0.218282 0.258305,0.663802 0.260533,0.990046 0.004,0.587123 0.01495,0.588808 1.073357,0.165317 1.34327,-0.53747 1.67907,-0.29607 0.41956,0.301608 -0.51445,0.244121 -1.074478,0.611483 -1.24451,0.81636 -0.569974,0.686777 -0.773549,0.382831 -0.769472,-1.148851 z m 6.345952,0.992187 c 0,-0.291042 -0.13891,-0.529167 -0.30868,-0.529167 -0.16978,0 -0.24635,-0.06233 -0.17016,-0.138519 0.0762,-0.07619 0.33415,-0.06345 0.57326,0.02831 0.46637,0.178965 0.61047,1.168546 0.17016,1.168546 -0.14552,0 -0.26458,-0.238125 -0.26458,-0.529167 z M 89.401281,36.374714 c 0.07655,-0.411758 0.37266,-1.883379 0.658024,-3.27027 0.285363,-1.386891 0.518842,-3.333928 0.518842,-4.326749 0,-2.105709 -0.134749,-2.011634 3.175,-2.216628 2.355668,-0.145902 2.048896,0.0346 -1.089025,0.640765 l -1.485897,0.287038 -0.137695,2.435998 c -0.09963,1.762511 -0.364503,3.094348 -0.958064,4.817247 -0.451202,1.309688 -0.757737,2.044358 -0.681185,1.632599 z m 12.818529,0.496518 c 0,-0.06591 0.14412,-0.436144 0.32026,-0.822735 0.2768,-0.607512 0.25199,-0.752813 -0.18286,-1.070783 -0.42826,-0.31315 -0.4385,-0.36789 -0.0688,-0.36789 0.65785,0 0.97184,0.766189 0.66946,1.633594 -0.14335,0.411211 -0.36805,0.747656 -0.49934,0.747656 -0.13128,0 -0.2387,-0.05393 -0.2387,-0.119842 z m 8.92528,-0.177573 c 0.17948,-0.180821 0.39297,-0.262115 0.47443,-0.180653 0.0815,0.08146 -0.0654,0.229406 -0.32632,0.328765 -0.37708,0.143586 -0.40747,0.113195 -0.14811,-0.148112 z m -12.761735,-10.021335 -0.79375,-0.201975 0.926042,-0.01169 c 0.509323,-0.0064 1.461823,0.08364 2.116663,0.200162 l 1.19063,0.211855 -1.32292,0.0018 c -0.727602,0.001 -1.680102,-0.08908 -2.116665,-0.200162 z"
       id="path1" />
  </g>
</svg>
