<?xml version="1.0" encoding="UTF-8" standalone="no"?>
<svg
   viewBox="0 0 100 100"
   xmlns="http://www.w3.org/2000/svg"
   xmlns:svg="http://www.w3.org/2000/svg">
  <g
     id="g1"
     transform="matrix(1.0168649,0,0,1.0168649,2.0838006,0.20463428)">
    <g
       id="icon"
       transform="translate(-2.878,-1.03)">
      <path
         fill="var(--color-dice)"
         d="M 34.449,72.826 23.851,41.064 50.704,20.008 78.159,41.064 67.959,73.408 Z"
         id="path1" />
      <path
         fill="var(--color-dice)"
         d="M 2.878,34.373 3.77,66.281 20.962,89.883 33.202,74.791 21.922,40.639 Z"
         id="path2" />
      <path
         fill="var(--color-dice)"
         d="M 67.664,75.568 34.139,75.367 23.358,90.52 l 27.099,8.449 27.684,-8.83 z"
         id="path3" />
      <path
         fill="var(--color-dice)"
         d="M 4.499,33.375 21.4,10.646 49.374,1.03 V 17.931 L 22.35,39.216 Z"
         id="path4" />
      <path
         fill="var(--color-dice)"
         d="m 52.702,1.047 27.682,9.325 16.153,23.325 -17.028,5.967 -27.1,-21.423 z"
         id="path5" />
      <path
         fill="var(--color-dice)"
         d="M 69.944,74.227 80.359,42.466 97.121,36.637 97.045,65.195 80.436,88.506 Z"
         id="path6" />
    </g>
  </g>
</svg>
