<?xml version="1.0" encoding="UTF-8" standalone="no"?>
<!-- Created with Inkscape (http://www.inkscape.org/) -->

<svg
   version="1.1"
   id="svg1"
   width="618.4458"
   height="629.29901"
   viewBox="0 0 618.4458 629.29901"
   sodipodi:docname="point.svg"
   inkscape:version="1.4.2 (f4327f4, 2025-05-13)"
   xmlns:inkscape="http://www.inkscape.org/namespaces/inkscape"
   xmlns:sodipodi="http://sodipodi.sourceforge.net/DTD/sodipodi-0.dtd"
   xmlns="http://www.w3.org/2000/svg"
   xmlns:svg="http://www.w3.org/2000/svg">
  <defs
     id="defs1" />
  <sodipodi:namedview
     id="namedview1"
     pagecolor="#ffffff"
     bordercolor="#000000"
     borderopacity="0.25"
     inkscape:showpageshadow="2"
     inkscape:pageopacity="0.0"
     inkscape:pagecheckerboard="0"
     inkscape:deskcolor="#d1d1d1"
     inkscape:zoom="1"
     inkscape:cx="322.5"
     inkscape:cy="301.5"
     inkscape:window-width="1839"
     inkscape:window-height="1057"
     inkscape:window-x="1993"
     inkscape:window-y="-8"
     inkscape:window-maximized="1"
     inkscape:current-layer="g1" />
  <g
     inkscape:groupmode="layer"
     inkscape:label="Image"
     id="g1"
     transform="translate(-38.554205,-44.448073)">
    <path
       style="fill:#000000"
       d="m 295.75,673.28375 c -1.5125,-0.22913 -2.75,-0.95482 -2.75,-1.61266 0,-0.65784 -3.0375,-2.041 -6.75,-3.0737 -7.82997,-2.17804 -15.22491,-5.87733 -18.30688,-9.15794 -2.46297,-2.6217 -3.81724,-11.42403 -3.91395,-25.43945 -0.0661,-9.5731 -1.27503,-12.8706 -5.45327,-14.87398 -2.59899,-1.24617 -3.71673,-1.08337 -12.01499,1.75 C 235.78658,624.55481 234,624.71739 234,622.01905 c 0,-1.25754 -0.82166,-2.14131 -2.25,-2.42007 -1.2375,-0.24152 -6.525,-1.26259 -11.75,-2.26905 L 210.5,615.5 210,608.63959 c -0.46242,-6.34483 -0.76175,-7.07886 -3.98298,-9.76732 -4.0573,-3.38625 -8.65298,-4.85889 -15.18756,-4.86669 -4.41397,-0.005 -4.70804,0.16513 -5.35306,3.10187 -0.37538,1.7091 -1.77108,4.71155 -3.10156,6.67211 -1.33047,1.96057 -3.04629,5.84971 -3.81292,8.64255 C 170.66964,641.17347 169.97702,643 166.96674,643 c -2.09421,0 -2.12159,0.21173 -1.42237,11 l 0.71294,11 h -5.22228 c -4.19384,0 -5.31525,-0.35558 -5.69444,-1.8056 -0.2597,-0.99307 -1.72608,-2.27889 -3.25863,-2.85736 -2.3848,-0.90016 -2.88263,-1.77677 -3.45366,-6.08137 -0.45023,-3.39406 -1.65232,-6.26922 -3.69664,-8.84166 -4.26592,-5.36797 -8.84145,-15.42823 -15.38497,-33.82706 -4.26576,-11.99429 -6.37258,-16.55603 -8.61289,-18.64879 -3.95518,-3.69469 -6.25912,-9.3905 -5.47948,-13.54637 0.33894,-1.80669 2.40037,-5.65933 4.58097,-8.56143 2.18059,-2.90209 3.96471,-5.70172 3.96471,-6.22139 0,-0.51967 -2.3625,-5.15712 -5.25,-10.30544 -4.2214,-7.52661 -5.81368,-9.50814 -8.12705,-10.11376 -2.52143,-0.66009 -3.21246,-1.73809 -5.59067,-8.72148 C 101.48633,525.05596 98.934503,520.20137 94.026072,514.53012 91.811732,511.97165 90,509.23073 90,508.43918 90,507.64763 89.310877,507 88.468615,507 c -0.842261,0 -1.79889,-0.69711 -2.125841,-1.54913 -0.326952,-0.85202 -3.220885,-2.87495 -6.430964,-4.49539 -3.210079,-1.62044 -6.320614,-3.85082 -6.9123,-4.9564 -0.591686,-1.10557 -1.312403,-5.04515 -1.601594,-8.75461 -0.73999,-9.49189 -1.161612,-11.03469 -3.191679,-11.67901 -1.362656,-0.43249 -2.20337,-2.77242 -3.527027,-9.81665 -3.561273,-18.95237 -3.96532,-19.8085 -12.091163,-25.61987 l -7.233093,-5.17291 -1.196504,-10.22801 c -0.658078,-5.62541 -2.055947,-14.40577 -3.106376,-19.51191 l -1.909871,-9.2839 2.428898,-7.14126 C 44.68402,379.63859 44.619596,375.78291 41.240414,369 c -2.59297,-5.20477 -2.736638,-6.22464 -2.676515,-19 0.07099,-15.08517 0.965856,-19.63028 10.896019,-55.34215 3.771373,-13.563 6.263185,-20.7285 7.874132,-22.643 1.731517,-2.05779 2.518905,-4.53726 2.967954,-9.34602 C 61.23378,252.69066 63.662134,244.4908 68.940229,233.5 75.093717,220.68633 81.709,211.43768 93.529478,199.12243 103.90159,188.31616 104.97328,186.25394 106.97473,173.25 L 108.2445,165 h 5.25031 5.2503 l 10.99116,-11.84834 c 9.63096,-10.38207 11.07318,-12.39529 11.65393,-16.268 0.6172,-4.11584 1.00415,-4.57628 5.62883,-6.69789 5.08151,-2.33119 5.19506,-2.51437 6.46867,-10.43577 0.45002,-2.79899 1.08257,-3.75 2.49425,-3.75 1.40287,0 1.97226,-0.83937 2.20469,-3.25 0.23875,-2.47622 0.78847,-3.25 2.30889,-3.25 1.54037,0 2.20001,0.96936 2.89208,4.25 0.6652,3.15329 1.37599,4.25 2.75447,4.25 1.20082,0 1.85792,0.71845 1.85792,2.03138 0,4.64692 3.12276,3.30234 11.35861,-4.89073 C 187.24544,107.29479 187.71007,107 192.1891,107 c 7.51659,0 9.85847,-1.76675 6.0609,-4.57244 -1.27824,-0.94437 -1.4529,-1.59469 -0.64792,-2.41232 0.81291,-0.825688 2.88356,-0.79114 7.89188,0.13168 6.71803,1.23784 6.85439,1.21852 12.89793,-1.827673 3.35946,-1.69331 8.27428,-3.5888 10.92183,-4.212201 2.64755,-0.6234 6.36005,-1.779551 8.25,-2.569224 C 240.94476,90.125136 241,90.004267 241,84.019642 c 0,-4.632228 0.37837,-6.227605 1.58696,-6.691385 1.69125,-0.648994 6.56432,0.685574 20.7535,5.683679 8.46976,2.983455 9.14067,3.067974 16,2.01565 3.93775,-0.604109 11.49574,-2.257757 16.79554,-3.674772 l 9.636,-2.576391 0.64278,-4.845569 c 0.35354,-2.665063 1.28213,-5.484902 2.06353,-6.266309 3.05719,-3.057192 21.55036,-2.927065 54.4395,0.383063 5.2702,0.53042 19.93219,1.249943 32.58219,1.59894 l 23,0.63454 11,5.366822 c 6.05,2.951752 13.55988,5.897837 16.68863,6.546856 4.35695,0.903796 5.81189,1.662874 6.21521,3.242634 0.5722,2.241283 8.68742,12.728302 15.9542,20.61704 3.51789,3.81899 5.23997,4.94556 7.55984,4.94556 1.65232,0 3.80924,0.83658 4.79316,1.85906 0.98393,1.02248 3.13896,2.18385 4.78896,2.58082 1.65,0.39698 5.1375,1.64082 7.75,2.76409 l 4.75,2.04232 v 6.31175 c 0,9.14526 0.84539,10.59899 8.29688,14.26735 5.84162,2.87582 6.89893,3.88787 10.63932,10.18388 2.28421,3.8449 4.24552,7.04118 4.35846,7.10284 0.11294,0.0617 5.69209,0.40457 12.39811,0.76202 15.70184,0.83696 16.46358,1.35403 21.60994,14.66905 l 3.80271,9.83863 -3.20035,6.05909 c -2.53019,4.79032 -3.20433,7.28158 -3.21938,11.89708 -0.0127,3.90194 0.43861,6.12081 1.36094,6.69084 0.75898,0.46908 1.85503,2.54606 2.43566,4.61552 l 1.0557,3.76266 5.09685,-0.27052 c 4.36876,-0.23187 5.17105,0.0132 5.61632,1.71597 0.46925,1.7944 0.94154,1.89394 4.88416,1.02936 2.40057,-0.52642 8.63968,-2.46111 13.86468,-4.29931 17.78823,-6.25806 21.1215,-5.75254 24.25818,3.67896 1.05816,3.1817 2.77263,6.21984 3.82897,6.78518 1.05207,0.56305 1.91285,1.68289 1.91285,2.48854 0,2.21241 8.88014,2.01099 10.52518,-0.23872 1.16129,-1.58816 1.50741,-1.59308 5.11024,-0.0726 2.12552,0.89704 5.84304,1.90449 8.26115,2.2388 5.78915,0.80036 13.93703,4.35789 15.14334,6.61189 C 656.56796,237.06124 657,238.6498 657,239.6047 657,241.41899 644.77566,254 643.01281,254 642.45576,254 642,254.9 642,256 c 0,2.40581 -3.48803,2.77655 -4.37505,0.46503 -0.52609,-1.37099 -0.92304,-1.36224 -3.71561,0.0818 -2.71601,1.4045 -3.04896,2.00504 -2.53536,4.57303 0.7202,3.60101 -1.91178,5.23267 -3.94823,2.44766 -0.96941,-1.32574 -2.03916,-1.59175 -4.35539,-1.08302 -1.6887,0.3709 -3.07036,1.09974 -3.07036,1.61966 0,0.51991 -1.125,1.37302 -2.5,1.89579 -1.53056,0.58192 -2.5,1.73565 -2.5,2.97525 0,1.35808 -0.65852,2.02475 -2,2.02475 -1.3214,0 -2,-0.66667 -2,-1.96482 0,-2.65285 -3.62172,-4.59401 -5.56392,-2.98213 -0.78985,0.65551 -1.43608,2.03674 -1.43608,3.06939 0,3.1576 -3.79893,2.3765 -4.24321,-0.87244 -0.31027,-2.26897 -0.51553,-2.44389 -1.17341,-1 -1.28887,2.82875 0.0804,4.75 3.38524,4.75 2.33897,0 3.03138,0.44548 3.03138,1.95031 0,1.07267 -0.69326,2.33828 -1.54058,2.81246 C 601.46931,277.87649 602.60496,281 605,281 c 0.98231,0 2.02414,0.62053 2.31518,1.37896 0.29103,0.75842 3.81533,2.3771 7.83176,3.59705 13.29833,4.03925 21.93642,9.58592 24.50597,15.73572 2.3806,5.69757 1.10861,7.64934 -6.60398,10.13335 -12.05344,3.88207 -33.04087,18.01974 -39.03582,26.29552 -5.49678,7.58808 -6.27909,17.60416 -1.93315,24.75049 1.96568,3.23229 2.38021,3.49651 7.10339,4.52771 1.51081,0.32985 2.97246,1.49676 3.34498,2.67046 1.40094,4.41396 -0.55802,8.72405 -7.81507,17.19465 l -7.22387,8.43189 -0.1227,8.29577 c -0.10247,6.92844 -0.44484,8.55889 -2.07718,9.89211 -1.58159,1.29176 -1.98523,2.98805 -2.11562,8.89087 -0.0886,4.012 -1.31238,12.29349 -2.71945,18.4033 -3.52159,15.29146 -4.03829,22.22708 -2.07126,27.80215 2.16674,6.14112 2.05591,7.24937 -1.32659,13.26515 -3.1737,5.64441 -6.49987,16.89941 -7.60537,25.73485 -1.11981,8.94976 -4.06116,15.59581 -7.97193,18.0128 -4.39924,2.71888 -15.22246,5.80273 -23.25311,6.6255 -4.75385,0.48705 -6.5594,1.1158 -7.32795,2.55186 -0.56091,1.04807 -2.2166,2.36058 -3.67931,2.91671 -2.15301,0.81857 -2.90389,0.67686 -3.94294,-0.74413 -0.9157,-1.25228 -1.59165,-1.44707 -2.35895,-0.67977 -0.7673,0.7673 -0.19264,3.19613 2.00545,8.47617 3.59555,8.6369 5.64852,11.84086 7.58717,11.84086 7.49969,0 9.99211,9.13781 3.41948,12.53665 C 531.4648,570.811 531,571.65833 531,574.87646 c 0,2.1038 -0.48096,5.20479 -1.06881,6.89108 -1.10568,3.17176 -1.39169,3.29189 -13.93119,5.85153 -1.925,0.39295 -16.65416,0.7519 -32.73147,0.79769 l -29.23148,0.0832 -2.96475,3.59644 c -2.89212,3.50833 -3.18044,3.61185 -11.76853,4.22534 -14.98278,1.0703 -25.47712,5.44896 -26.11395,10.89578 -0.17059,1.45913 0.62406,5.67766 1.7659,9.37451 3.09937,10.0346 1.49873,15.05309 -6.04549,18.95435 -1.66746,0.86228 -9.52731,2.52644 -17.46631,3.69812 -14.2155,2.09802 -14.49155,2.10169 -18.18924,0.24194 -3.0386,-1.52826 -6.08545,-1.90179 -15.97579,-1.95856 -7.66086,-0.044 -12.64279,-0.49182 -13.35118,-1.20021 -1.29927,-1.29927 -5.81973,-0.28371 -9.51522,2.13767 -1.28817,0.84404 -2.92046,1.53902 -3.62731,1.54439 -0.70685,0.005 -3.54875,1.06383 -6.31533,2.35214 l -5.03016,2.34237 -1.26847,7.54909 c -0.69766,4.152 -2.40332,9.82645 -3.79037,12.60989 -3.90953,7.84541 -8.55807,9.94638 -18.63085,8.42049 z m 96.58103,-163.73759 c 8.33691,-4.88576 13.39231,-12.5376 10.8288,-16.39046 -0.74005,-1.11228 -1.42656,-1.06913 -3.97747,0.25 -1.69567,0.87686 -3.47605,1.5943 -3.9564,1.5943 -0.48034,0 -1.51519,-2.1259 -2.29966,-4.72421 -1.20706,-3.99806 -1.88881,-4.81648 -4.43532,-5.32442 -1.65496,-0.33011 -4.20524,-1.70882 -5.6673,-3.06381 C 379.50236,478.80947 378,469.46189 378,451.87505 c 0,-14.63632 -2.10402,-25.40748 -5.11695,-26.19538 -2.21918,-0.58033 -2.21504,-0.6609 0.83114,-16.17967 0.86368,-4.4 1.58131,-10.522 1.59474,-13.60444 0.0208,-4.77889 -0.46703,-6.28875 -3.31178,-10.25 C 370.11529,383.02512 367.863,381 366.83048,381 365.67866,381 365,380.27278 365,379.03854 c 0,-2.00324 2.49352,-3.01836 11.29031,-4.59634 3.07205,-0.55106 4.15336,-1.39154 5.70615,-4.43526 3.85072,-7.54803 11.269,-11.292 14.19684,-7.16508 0.9848,1.38813 3.13298,1.99304 8.7202,2.45553 4.35812,0.36075 7.74075,1.14318 8.20756,1.89848 0.43673,0.70666 2.95066,1.74074 5.5865,2.29797 l 4.79244,1.01314 0.5,10.14679 c 0.56408,11.44727 1.67683,13.61076 7.88156,15.32397 3.04208,0.83996 4.74732,0.53947 11.31783,-1.99439 4.25485,-1.64084 8.76311,-2.96648 10.01835,-2.94585 1.25524,0.0206 9.11232,2.64398 17.46017,5.82968 13.73748,5.24249 15.22331,5.61854 15.65638,3.9625 0.26316,-1.00632 1.34937,-1.82968 2.4138,-1.82968 1.39149,0 2.27211,-1.12404 3.13376,-4 1.40482,-4.68886 1.88232,-4.76928 11.87559,-2 8.88254,2.46148 18.35762,2.62594 21.78813,0.37818 1.36136,-0.89199 6.63303,-3.33494 11.71482,-5.42877 5.08178,-2.09383 9.34964,-4.40151 9.48412,-5.12819 0.13448,-0.72667 -1.60589,-2.17104 -3.86749,-3.20971 -8.04823,-3.69625 -9.90315,-14.44844 -4.83119,-28.00447 1.63027,-4.35728 3.06078,-6.27233 6.40306,-8.57188 9.33526,-6.42282 6.0487,-13.08338 -8.84367,-17.92263 -4.94674,-1.60743 -4.9667,-1.6315 -6.31503,-7.61253 -2.47441,-10.97619 -3.35591,-13.5 -4.71519,-13.5 -0.84298,0 -1.61053,-1.77938 -2.04896,-4.75 -0.38557,-2.6125 -2.01167,-10.13871 -3.61354,-16.72491 -3.88126,-15.95803 -3.86191,-21.84009 0.0895,-27.2132 4.73583,-6.43973 4.79665,-8.97223 0.35233,-14.66933 -2.08412,-2.67158 -4.80373,-5.24311 -6.04358,-5.7145 -1.23985,-0.47139 -2.89159,-2.38239 -3.67053,-4.24667 -1.37036,-3.27972 -1.63354,-3.40703 -8.11939,-3.92765 -5.88156,-0.47212 -7.12459,-0.94658 -10.14197,-3.87113 -2.75887,-2.67401 -3.32316,-3.8598 -2.85378,-5.99688 0.43386,-1.97538 -0.05,-3.34908 -1.8723,-5.31536 -1.35155,-1.45835 -3.95142,-6.68328 -5.77749,-11.61096 L 477.5552,191 l -9.5276,-0.0153 c -5.24018,-0.008 -10.03346,-0.34592 -10.65174,-0.75 -0.64174,-0.41941 -1.31184,-4.7361 -1.56154,-10.0592 -0.28569,-6.09031 -0.88176,-9.59914 -1.71854,-10.11629 -0.71433,-0.44148 -4.00528,0.0859 -7.43846,1.19201 -8.03044,2.58729 -19.16461,2.69541 -27.52749,0.26732 -7.20567,-2.0921 -7.48895,-2.49721 -10.7599,-15.38772 -1.52287,-6.00146 -2.32096,-7.54079 -4.30001,-8.29372 -3.8162,-1.45187 -6.72186,-4.99903 -7.48072,-9.13229 -0.5269,-2.86991 -1.35414,-4.04922 -3.39299,-4.83705 -3.83346,-1.4813 -10.55644,-0.50752 -12.93793,1.87397 C 377.02163,138.97837 354.5356,144 343.27907,144 c -5.03857,0 -9.39383,0.37666 -9.67835,0.83703 -0.28452,0.46037 0.16444,1.81037 0.99769,3 1.09903,1.5691 2.55361,2.16297 5.29778,2.16297 3.08318,0 3.99741,0.47106 4.94329,2.54705 2.39091,5.24748 1.28013,9.82262 -2.911,11.98994 -5.93749,3.07039 -15.67928,0.73779 -20.92848,-5.01117 -1.375,-1.50591 -3.45272,-3.10641 -4.61716,-3.55666 -1.8392,-0.71117 -2.1828,-1.84601 -2.61713,-8.6439 -0.55894,-8.74827 -3.89375,-18.78823 -6.74794,-20.31575 -1.36869,-0.7325 -3.29388,-0.31464 -7.57015,1.6431 -7.24308,3.31599 -12.87327,3.95478 -20.53195,2.32949 -5.1944,-1.10232 -6.25237,-1.07397 -7.52812,0.20178 -1.31247,1.31246 -0.87193,1.8799 3.80439,4.90023 5.23582,3.38171 6.94544,6.17851 4.97889,8.14506 -0.68899,0.68899 -1.97783,0.33238 -3.99816,-1.10621 C 274.5329,141.95533 272.20726,141 271.00459,141 c -2.75392,0 -10.32411,6.37144 -11.04967,9.29995 -0.88812,3.58455 -4.35494,2.84993 -4.95492,-1.04994 l -0.5,-3.25 -3.43,2.09476 c -2.99847,1.83122 -14.51418,3.74372 -23.35138,3.87813 -0.97977,0.0149 -2.06638,0.8146 -2.41471,1.7771 -0.34832,0.9625 -2.32723,3.61776 -4.39757,5.90059 -4.55178,5.01892 -7.15523,9.94595 -9.44758,17.87951 -0.94874,3.28344 -3.01507,7.44806 -4.59187,9.2547 -2.32988,2.66951 -2.86689,4.21484 -2.86689,8.25 0,3.64304 0.38148,4.9652 1.43261,4.9652 0.78794,0 1.746,0.98738 2.12902,2.19418 0.38302,1.2068 1.49149,2.8943 2.46326,3.75 2.39326,2.1074 5.36684,14.9958 4.43678,19.23033 -0.96915,4.41251 -2.95696,7.2745 -6.02275,8.67136 -6.24656,2.84613 -17.60768,-0.0136 -18.25847,-4.59587 -0.29175,-2.05425 -0.85724,-2.25128 -6.5,-2.26474 -3.39925,-0.008 -7.29025,-0.57632 -8.64666,-1.26269 -3.57029,-1.80663 -4.79507,-6.90293 -2.70986,-11.27567 L 173.96764,211 h -3.37303 c -1.85518,0 -4.32274,-0.7875 -5.48348,-1.75 l -2.11043,-1.75 2.12415,-5.70436 C 167.62666,195.07707 167.16414,193 163.16624,193 c -9.12991,0 -15.94143,15.97054 -19.61923,46 -0.90937,7.425 -2.31788,18.9 -3.13003,25.5 -2.51197,20.4137 -6.40318,33.46687 -11.29561,37.89145 -1.72093,1.55636 -3.07575,1.78985 -7.64758,1.318 -7.16677,-0.73968 -11.87098,-3.42859 -12.29192,-7.02603 -0.2474,-2.11436 -1.3985,-3.26624 -5.17786,-5.18139 -3.30213,-1.67331 -4.962992,-3.17938 -5.181877,-4.69891 -0.177173,-1.22995 -1.570929,-2.92632 -3.097235,-3.7697 -3.914097,-2.16279 -4.967392,-0.25855 -4.195742,7.58542 0.572181,5.81633 0.468008,6.21641 -2.107065,8.09222 -2.473433,1.80177 -3.005058,3.48715 -6.113482,19.38116 -3.640256,18.61337 -4.204418,27.64803 -2.355623,37.72366 2.623022,14.29502 2.977668,21.42333 1.412541,28.39173 -0.828604,3.68919 -1.362322,7.96419 -1.18604,9.5 0.278101,2.42289 0.716215,2.76312 3.310906,2.57121 1.644716,-0.12165 3.123444,-0.62033 3.286063,-1.10819 1.323017,-3.96905 3.059813,-4.67063 11.562369,-4.67063 7.567475,0 8.776985,0.26017 11.024275,2.37138 4.67392,4.39093 5.92013,8.43776 4.59264,14.91378 -0.6443,3.14316 -1.77496,7.17734 -2.51257,8.96484 -1.26936,3.0761 -1.61844,3.25 -6.52381,3.25 h -5.1827 l 0.55434,4.13292 c 0.38894,2.89971 1.47259,4.97161 3.63167,6.94363 1.69253,1.54589 3.07733,3.40437 3.07733,4.12995 0,0.72558 1.0125,1.76345 2.25,2.30637 1.32459,0.58113 2.37231,2.037 2.54737,3.53973 0.27525,2.36266 1.27982,2.83969 13.5,6.41054 7.26145,2.12186 13.76513,4.29079 14.45263,4.81984 0.6875,0.52905 1.25,1.995 1.25,3.25768 0,4.69841 0.91371,5.45934 6.55547,5.45934 4.23006,0 5.87239,0.49203 7.89301,2.36467 1.40334,1.30057 2.55152,3.10057 2.55152,4 0,1.8326 2.57532,2.12749 6.27972,0.71908 3.8474,-1.46278 5.72028,-3.96916 5.72028,-7.65518 0,-2.16765 0.78529,-4.21386 2.1353,-5.56387 1.98094,-1.98094 2.07266,-2.68574 1.26871,-9.75 -0.47662,-4.18808 -0.89521,-12.3397 -0.93021,-18.1147 -0.16306,-26.90988 -0.23101,-27.56835 -2.9738,-28.81805 -2.05086,-0.93443 -2.5,-1.84685 -2.5,-5.07872 0,-5.74559 0.73881,-6.93718 5.93317,-9.56937 2.62023,-1.32777 5.85798,-4.06799 7.34931,-6.21997 1.46613,-2.11564 4.71229,-5.8552 7.21368,-8.31012 2.50139,-2.45493 5.47819,-6.38507 6.61512,-8.73364 2.57407,-5.31731 5.72949,-5.7226 9.88872,-1.27013 1.54133,1.65 3.52188,3 4.40121,3 0.87933,0 1.59879,0.49134 1.59879,1.09186 0,0.69371 1.91046,0.9672 5.2391,0.75 5.1335,-0.33497 5.26045,-0.27651 6.29792,2.90013 0.58235,1.7831 1.77039,3.8081 2.6401,4.5 0.8697,0.69191 1.86109,3.46159 2.20308,6.15485 0.34198,2.69327 1.07329,6.57356 1.62511,8.62289 0.89985,3.34177 1.4186,3.79244 5.03014,4.36995 2.89037,0.46219 4.27449,1.27417 4.90439,2.87712 0.48266,1.22826 1.81865,3.0163 2.96886,3.97341 1.26302,1.05098 2.0913,2.91834 2.0913,4.71482 0,1.95115 0.68813,3.34288 2,4.04497 1.1,0.5887 2,1.96348 2,3.05506 0,1.09157 1.15244,3.81026 2.56097,6.04153 2.641,4.1836 7.75673,16.25723 8.98727,21.21083 0.38357,1.54408 1.75302,3.49909 3.04321,4.34446 C 266.19396,443.01233 278,457.93097 278,460.1228 c 0,1.06903 -1.12465,4.16308 -2.49923,6.87567 -2.43442,4.80411 -2.44909,4.95882 -0.56574,5.96676 1.06342,0.56912 5.93042,1.03477 10.81557,1.03477 7.73108,0 17.22831,1.09204 22.32138,2.56664 2.24426,0.64978 5.5593,7.16034 6.3308,12.43336 0.36212,2.475 1.78727,6.83089 3.16699,9.67976 2.00403,4.13794 3.42095,5.62143 7.04463,7.37562 4.6137,2.23345 5.38801,2.25015 17.1356,0.36941 3.88161,-0.62143 4.25,-0.49597 4.25,1.4474 0,3.128 1.94292,2.59001 3.14984,-0.87219 1.02323,-2.93524 3.33488,-4.04584 4.03699,-1.93952 0.21422,0.64268 2.51242,0.0556 5.83333,-1.49023 3.01391,-1.40289 6.6592,-2.55511 8.10065,-2.56048 3.18566,-0.0119 16.87919,5.89324 16.87919,7.27888 0,0.84409 2.84492,3.58303 3.82193,3.67955 0.17706,0.0175 2.20615,-1.07243 4.5091,-2.42204 z M 495.58323,82.516614 c -2.15422,-0.767581 -4.98068,-2.459517 -6.28102,-3.759858 C 485.0633,74.517842 485.25389,66 489.58765,66 492.87486,66 504,78.88776 504,82.695781 c 0,1.670171 -3.43159,1.597123 -8.41677,-0.179167 z M 475.83455,61.673468 c -4.35786,-2.288489 -6.85251,-4.339855 -7.99441,-6.573845 -0.91292,-1.786022 -2.32998,-3.776582 -3.14902,-4.423468 -1.94365,-1.535104 -3.04766,-5.337769 -1.77759,-6.122716 1.53484,-0.948581 13.18807,4.718855 17.51576,8.518623 3.48785,3.062367 6.57071,8.1745 6.57071,10.895819 0,2.001688 -4.9033,0.994097 -11.16545,-2.294413 z"
       id="path1"
       sodipodi:nodetypes="sssssssssscsscssssscssssssssssssssssssssssscsscssssssssscccssssssssssssssssssssssscsssscsssssssscsssssscsssscssssssssssssssssssssssssssssssssssssssssscsssssssssssssssssssscsssssssssscscssssssssssssssssssssssssscsssssssssssssssssssssssssssssccssssssssssssssssssssssssssssscssssssssssssscsscsscssssssssssssssssssssssscsssssssssssssssssssssssssssssssssssssssssssssssssssssssssssssssssss" />
    <path
       style="fill:#000000;stroke-width:0.0758796"
       d="m 273.11144,473.51442 c -0.91714,-0.49762 -1.3487,-1.06151 -1.3487,-1.76226 0,-0.46849 0.27663,-1.54765 0.76001,-2.96487 0.54374,-1.59419 1.03165,-2.80226 2.4747,-6.12731 1.01588,-2.34077 1.24267,-2.92531 1.17623,-3.0317 -0.0981,-0.15715 -4.05481,-4.88722 -5.35313,-6.3995 -2.05451,-2.39309 -4.7747,-5.45964 -6.74138,-7.59976 -0.61959,-0.67423 -1.44945,-1.61324 -1.84414,-2.08669 -0.80982,-0.97142 -1.96938,-2.55413 -1.91275,-2.61076 0.0206,-0.0206 0.13336,0.0916 0.2507,0.24926 0.11734,0.15763 1.21044,1.27684 2.42912,2.48712 2.32762,2.31158 3.80971,3.9392 6.21854,6.82916 1.75167,2.10154 7.62603,9.48565 7.62603,9.58597 0,0.0391 -0.7648,1.63727 -1.69957,3.55141 -1.79911,3.68408 -2.24259,4.66357 -2.61569,5.77721 -0.45827,1.36783 -0.50479,2.38042 -0.14199,3.09049 0.22127,0.43307 0.46541,0.68114 1.00062,1.01671 0.4858,0.3046 0.28509,0.30137 -0.2786,-0.004 z"
       id="path3" />
    <path
       style="fill:#000000;stroke-width:0.0758796"
       d="m 323.85408,508.28827 c -1.49009,-0.52485 -2.33235,-0.96723 -3.49046,-1.83329 -2.85897,-2.138 -4.98371,-5.89526 -6.94397,-12.2793 -0.20978,-0.68317 -0.69041,-2.37339 -1.06807,-3.75603 -0.98178,-3.5944 -1.63539,-5.53048 -2.5946,-7.68564 -0.88089,-1.97917 -1.58711,-2.7664 -3.20985,-3.57809 -2.67495,-1.338 -6.82493,-2.04721 -18.50822,-3.16295 -3.85597,-0.36825 -5.56176,-0.55074 -7.47414,-0.79961 -1.61801,-0.21057 -4.15094,-0.6246 -4.04242,-0.66078 0.049,-0.0163 0.45792,0.0234 0.90863,0.0883 1.29362,0.18626 2.78592,0.32567 6.13104,0.57273 7.49631,0.55367 13.78473,1.22904 17.71426,1.90248 5.65347,0.9689 7.6653,2.14922 9.22879,5.41448 0.71398,1.49109 1.28882,3.46052 2.1174,7.25426 0.64775,2.96574 1.05196,4.44702 1.80145,6.60152 1.32122,3.798 2.96002,6.6116 5.10502,8.76462 1.29717,1.30202 2.77586,2.32183 4.33313,2.98844 0.41295,0.17677 0.8191,0.35107 0.90256,0.38734 0.10102,0.0439 0.11371,0.0676 0.0379,0.0707 -0.0626,0.003 -0.48942,-0.12749 -0.94849,-0.28919 z"
       id="path4" />
    <path
       style="fill:#000000;stroke-width:0.00390625"
       d="m 279.10547,475.04072 c -0.32332,-0.0483 -0.54734,-0.0825 -0.76758,-0.11734 -2.92931,-0.46331 -4.70278,-0.96666 -5.66992,-1.60927 -0.41021,-0.27256 -0.68162,-0.57417 -0.82748,-0.91958 -0.0719,-0.17034 -0.11392,-0.35415 -0.12602,-0.55176 l -0.003,-0.0439 h 0.0239 c 0.0283,0 0.0265,-0.004 0.0296,0.0644 0.003,0.0598 0.0113,0.12518 0.026,0.19922 0.091,0.45817 0.39275,0.85422 0.92747,1.2173 0.33482,0.22734 0.85642,0.48699 0.93745,0.46666 0.0401,-0.0101 -0.0372,-0.0814 -0.21036,-0.19385 -0.0445,-0.0289 -0.13056,-0.0853 -0.19115,-0.1253 -0.43629,-0.28791 -0.66237,-0.53107 -0.86218,-0.92731 -0.10115,-0.20061 -0.16517,-0.39849 -0.20283,-0.62695 -0.004,-0.0269 -0.009,-0.0545 -0.0102,-0.0615 -0.002,-0.012 -10e-4,-0.0127 0.01,-0.0127 0.007,0 0.0119,0.001 0.0119,0.003 0,0.008 0.0244,0.14093 0.0332,0.18056 0.0801,0.36217 0.23922,0.67524 0.48406,0.95226 0.0499,0.0564 0.17325,0.17799 0.23014,0.22676 0.67831,0.58143 1.80284,0.98377 3.62599,1.29733 0.67853,0.1167 1.54295,0.23213 2.44303,0.32622 0.21413,0.0224 0.19531,0.019 0.19531,0.0347 v 0.0127 l -0.0322,-0.003 c -0.58985,-0.0592 -1.11668,-0.12212 -1.67675,-0.20033 -0.4372,-0.0611 -0.6958,-0.0904 -0.87305,-0.0992 -0.0736,-0.004 -0.1096,-0.002 -0.11209,0.006 -0.002,0.006 0.0126,0.0118 0.064,0.0251 0.24966,0.0648 1.3703,0.25542 2.46799,0.41975 0.0795,0.0119 0.14849,0.0225 0.15332,0.0237 0.008,0.002 0.009,0.004 0.009,0.0273 0,0.0139 -10e-4,0.0251 -0.003,0.0249 -0.002,-2.1e-4 -0.0486,-0.007 -0.10449,-0.0155 z"
       id="path5" />
    <path
       style="fill:#000000;stroke-width:0.00390625"
       d=""
       id="path6" />
  </g>
</svg>
