<?xml version="1.0" encoding="UTF-8" standalone="no"?>
<svg
   viewBox="0 0 361.90262 301.72366"
   xmlns="http://www.w3.org/2000/svg"
   xmlns:svg="http://www.w3.org/2000/svg">
  <g
     id="icon"
     transform="translate(-19.523088,-6.6759083)">
    <path
       fill="var(--color-sens)"
       d="m 222.60386,304.79233 c 2.8073,-3.14456 2.91552,-3.63577 2.91552,-13.23422 0,-9.60098 -0.10756,-10.08883 -2.91797,-13.23422 l -2.91797,-3.26578 h -17.16406 -17.16406 l -2.91797,3.26578 c -2.78057,3.112 -2.91723,3.70059 -2.90323,12.5 0.0261,16.36501 2.25683,17.9396 24.81974,17.51964 l 15.33447,-0.28542 z m 1.87165,-42.47935 c 8.51976,-13.65032 17.17813,-31.79737 21.53949,-45.14456 1.95708,-5.98933 3.38849,-11.05953 3.18091,-11.26711 -0.20758,-0.20758 -3.48222,0.0714 -7.27698,0.61988 -9.94369,1.43732 -19.73315,1.26263 -30.22333,-0.53934 -8.35394,-1.435 -9.9985,-1.435 -18.35244,0 -10.49018,1.80197 -20.27964,1.97666 -30.22333,0.53934 -3.79476,-0.54852 -7.02691,-0.86995 -7.18257,-0.7143 -0.6695,0.6695 7.64723,24.0225 11.48561,32.25107 2.30898,4.94991 7.64644,14.73741 11.86103,21.75 l 7.66287,12.75015 h 15.56715 15.56716 z m -71.47124,-61.50487 c -1.67784,-4.02723 -1.75771,-26.79752 -0.12232,-34.86852 1.47873,-7.29781 1.48144,-8.6019 0.032,-15.42659 -1.61426,-7.60104 -1.55667,-31.28813 0.0856,-35.20489 0.55519,-1.32413 0.25244,-1.75 -1.24411,-1.75 -3.08808,0 -21.06864,5.39446 -31.91356,9.57458 -11.71053,4.51377 -37.411373,17.40898 -45.822553,22.99113 l -6,3.98195 -0.28727,8.02969 -0.28727,8.0297 10.28727,6.0931 c 19.39883,11.48984 39.915163,20.82157 57.587923,26.19351 11.33571,3.44569 12.90277,3.83513 16.05634,3.99034 1.87401,0.0922 2.20759,-0.2426 1.6279,-1.634 z m 115.51511,-1.91303 c 23.2771,-6.99134 66.95526,-28.40521 65.52752,-32.12584 -0.29013,-0.75609 -0.52752,-5.38226 -0.52752,-10.28037 v -8.90567 l -4.25,-2.69137 c -15.88556,-10.05974 -43.92347,-22.66717 -62.07997,-27.91468 -15.66818,-4.52834 -15.71529,-4.52563 -14.4671,0.83096 1.60185,6.87433 1.29019,26.38963 -0.54277,33.98709 -1.48075,6.13758 -1.48716,7.27665 -0.0721,12.80034 1.80072,7.02888 2.26828,20.26853 1.08903,30.83753 l -0.82286,7.37496 3.82286,-0.67998 c 2.10258,-0.37398 7.64787,-1.82882 12.32287,-3.23297 z m -55.42422,-1.19116 c 14.33778,-6.9336 27.15224,-20.03705 32.9923,-33.73636 l 2.59643,-6.09056 -2.93344,-6.40944 c -3.95005,-8.63073 -11.18775,-17.96824 -18.61032,-24.00958 -7.1665,-5.83292 -20.65451,-12.89987 -24.62075,-12.89987 -1.52263,0 -6.53302,1.8707 -11.1342,4.15711 -6.70491,3.33179 -10.16287,5.96236 -17.41753,13.25 -9.41891,9.46173 -16.44827,20.58067 -16.44827,26.01764 0,6.48553 11.43024,23.55105 20.80911,31.06831 6.84139,5.48345 20.38055,12.50694 24.10958,12.50694 1.47791,0 6.2736,-1.73439 10.65709,-3.85419 z M 62.602927,169.79233 c 2.82326,-3.16142 2.91574,-3.5928 2.89421,-13.5 -0.0236,-10.87969 -0.8488,-13.15568 -5.66202,-15.61718 -2.72215,-1.39212 -30.15849,-1.50753 -33.75019,-0.14197 -4.49091,1.70745 -6.55762,6.5285 -6.56182,15.30705 -0.008,16.09777 2.48057,17.84898 24.82982,17.47468 l 15.33354,-0.2568 z m 312.382153,2.34456 c 5.34777,-2.23444 6.78069,-6.11999 6.37645,-17.29057 -0.33421,-9.23534 -0.41792,-9.52238 -3.60793,-12.37146 l -3.26577,-2.91675 H 358.9079 c -21.97173,0 -23.38852,1.04946 -23.38852,17.32455 0,14.90245 2.29169,16.57591 22.78212,16.63631 9.2946,0.0274 14.30329,-0.38753 16.68358,-1.38208 z M 217.59451,109.50631 c 8.27597,-1.02838 12.83507,-1.06846 20.96986,-0.18433 5.7171,0.62136 10.53293,0.99155 10.70184,0.82263 0.16892,-0.16892 -1.28522,-5.20748 -3.23142,-11.196806 -4.12325,-12.689108 -14.97632,-35.126296 -23.04376,-47.639688 l -5.64116,-8.75 -14.66524,0.0048 -14.66525,0.0048 -5.96328,9.245226 c -8.64915,13.409299 -17.89625,32.487653 -22.41774,46.251644 -2.16695,6.596464 -3.83306,12.103214 -3.70247,12.237214 0.13059,0.134 4.0278,-0.24779 8.66046,-0.84843 8.6024,-1.11533 24.62344,-0.55873 30.92303,1.07431 3.90414,1.01207 6.78331,0.87887 22.07513,-1.02132 z m 5.00931,-72.713971 c 2.80735,-3.144571 2.91556,-3.635741 2.91556,-13.234223 0,-9.598482 -0.10821,-10.089652 -2.91556,-13.234223 l -2.91556,-3.2657771 -15.83444,-0.284045 c -14.46907,-0.259553 -16.11683,-0.108614 -19.10937,1.7504601 -4.46934,2.776521 -5.44052,5.981356 -5.05482,16.680585 0.34668,9.616625 1.57199,12.412388 6.32975,14.442413 1.1,0.469344 9.1255,0.753731 17.83444,0.63197 l 15.83444,-0.221383 z"
       id="path4" />
  </g>
</svg>
